<svg width="222" height="58" viewBox="0 0 222 58" fill="none" xmlns="http://www.w3.org/2000/svg">
<path d="M3.03409 46V11.0909H17.0114C19.5795 11.0909 21.7216 11.4716 23.4375 12.233C25.1534 12.9943 26.4432 14.0511 27.3068 15.4034C28.1705 16.7443 28.6023 18.2898 28.6023 20.0398C28.6023 21.4034 28.3295 22.6023 27.7841 23.6364C27.2386 24.6591 26.4886 25.5 25.5341 26.1591C24.5909 26.8068 23.5114 27.267 22.2955 27.5398V27.8807C23.625 27.9375 24.8693 28.3125 26.0284 29.0057C27.1989 29.6989 28.1477 30.6705 28.875 31.9205C29.6023 33.1591 29.9659 34.6364 29.9659 36.3523C29.9659 38.2045 29.5057 39.858 28.5852 41.3125C27.6761 42.7557 26.3295 43.8977 24.5455 44.7386C22.7614 45.5795 20.5625 46 17.9489 46H3.03409ZM10.4148 39.9659H16.4318C18.4886 39.9659 19.9886 39.5739 20.9318 38.7898C21.875 37.9943 22.3466 36.9375 22.3466 35.6193C22.3466 34.6534 22.1136 33.8011 21.6477 33.0625C21.1818 32.3239 20.517 31.7443 19.6534 31.3239C18.8011 30.9034 17.7841 30.6932 16.6023 30.6932H10.4148V39.9659ZM10.4148 25.6989H15.8864C16.8977 25.6989 17.7955 25.5227 18.5795 25.1705C19.375 24.8068 20 24.2955 20.4545 23.6364C20.9205 22.9773 21.1534 22.1875 21.1534 21.267C21.1534 20.0057 20.7045 18.9886 19.8068 18.2159C18.9205 17.4432 17.6591 17.0568 16.0227 17.0568H10.4148V25.6989ZM51.4219 34.8523V19.8182H58.6832V46H51.7116V41.2443H51.4389C50.848 42.7784 49.8651 44.0114 48.4901 44.9432C47.1264 45.875 45.4616 46.3409 43.4957 46.3409C41.7457 46.3409 40.206 45.9432 38.8764 45.1477C37.5469 44.3523 36.5071 43.2216 35.7571 41.7557C35.0185 40.2898 34.6435 38.5341 34.6321 36.4886V19.8182H41.8935V35.1932C41.9048 36.7386 42.3196 37.9602 43.1378 38.858C43.956 39.7557 45.0526 40.2045 46.4276 40.2045C47.3026 40.2045 48.1207 40.0057 48.8821 39.608C49.6435 39.1989 50.2571 38.5966 50.723 37.8011C51.2003 37.0057 51.4332 36.0227 51.4219 34.8523ZM71.7528 30.8636V46H64.4915V19.8182H71.4119V24.4375H71.7188C72.2983 22.9148 73.2699 21.7102 74.6335 20.8239C75.9972 19.9261 77.6506 19.4773 79.5938 19.4773C81.4119 19.4773 82.9972 19.875 84.3494 20.6705C85.7017 21.4659 86.7528 22.6023 87.5028 24.0795C88.2528 25.5455 88.6278 27.2955 88.6278 29.3295V46H81.3665V30.625C81.3778 29.0227 80.9688 27.7727 80.1392 26.875C79.3097 25.9659 78.1676 25.5114 76.7131 25.5114C75.7358 25.5114 74.8722 25.7216 74.1222 26.142C73.3835 26.5625 72.804 27.1761 72.3835 27.983C71.9744 28.7784 71.7642 29.7386 71.7528 30.8636ZM103.999 46.4261C102.01 46.4261 100.209 45.9148 98.5952 44.892C96.9929 43.858 95.7202 42.3409 94.777 40.3409C93.8452 38.3295 93.3793 35.8636 93.3793 32.9432C93.3793 29.9432 93.8622 27.4489 94.8281 25.4602C95.794 23.4602 97.0781 21.9659 98.6804 20.9773C100.294 19.9773 102.061 19.4773 103.982 19.4773C105.447 19.4773 106.669 19.7273 107.646 20.2273C108.635 20.7159 109.43 21.3295 110.033 22.0682C110.646 22.7955 111.112 23.5114 111.43 24.2159H111.652V11.0909H118.896V46H111.737V41.8068H111.43C111.089 42.5341 110.607 43.2557 109.982 43.9716C109.368 44.6761 108.567 45.2614 107.578 45.7273C106.601 46.1932 105.408 46.4261 103.999 46.4261ZM106.3 40.6477C107.47 40.6477 108.459 40.3295 109.266 39.6932C110.084 39.0455 110.709 38.142 111.141 36.983C111.584 35.8239 111.805 34.4659 111.805 32.9091C111.805 31.3523 111.589 30 111.158 28.8523C110.726 27.7045 110.101 26.8182 109.283 26.1932C108.464 25.5682 107.47 25.2557 106.3 25.2557C105.107 25.2557 104.101 25.5795 103.283 26.2273C102.464 26.875 101.845 27.7727 101.425 28.9205C101.004 30.0682 100.794 31.3977 100.794 32.9091C100.794 34.4318 101.004 35.7784 101.425 36.9489C101.857 38.108 102.476 39.017 103.283 39.6761C104.101 40.3239 105.107 40.6477 106.3 40.6477ZM136.798 46.5114C134.105 46.5114 131.787 45.9659 129.844 44.875C127.912 43.7727 126.423 42.2159 125.378 40.2045C124.332 38.1818 123.81 35.7898 123.81 33.0284C123.81 30.3352 124.332 27.9716 125.378 25.9375C126.423 23.9034 127.895 22.3182 129.793 21.1818C131.702 20.0455 133.94 19.4773 136.509 19.4773C138.236 19.4773 139.844 19.7557 141.332 20.3125C142.832 20.858 144.139 21.6818 145.253 22.7841C146.378 23.8864 147.253 25.2727 147.878 26.9432C148.503 28.6023 148.815 30.5455 148.815 32.7727V34.767H126.707V30.267H141.98C141.98 29.2216 141.753 28.2955 141.298 27.4886C140.844 26.6818 140.213 26.0511 139.406 25.5966C138.611 25.1307 137.685 24.8977 136.628 24.8977C135.526 24.8977 134.548 25.1534 133.696 25.6648C132.855 26.1648 132.196 26.8409 131.719 27.6932C131.241 28.5341 130.997 29.4716 130.986 30.5057V34.7841C130.986 36.0795 131.224 37.1989 131.702 38.142C132.19 39.0852 132.878 39.8125 133.764 40.3239C134.651 40.8352 135.702 41.0909 136.918 41.0909C137.724 41.0909 138.463 40.9773 139.134 40.75C139.804 40.5227 140.378 40.1818 140.855 39.7273C141.332 39.2727 141.696 38.7159 141.946 38.0568L148.662 38.5C148.321 40.1136 147.622 41.5227 146.565 42.7273C145.52 43.9205 144.168 44.8523 142.509 45.5227C140.861 46.1818 138.957 46.5114 136.798 46.5114ZM175.338 27.2841L168.69 27.6932C168.577 27.125 168.332 26.6136 167.957 26.1591C167.582 25.6932 167.088 25.3239 166.474 25.0511C165.872 24.767 165.151 24.625 164.31 24.625C163.185 24.625 162.236 24.8636 161.463 25.3409C160.69 25.8068 160.304 26.4318 160.304 27.2159C160.304 27.8409 160.554 28.3693 161.054 28.8011C161.554 29.233 162.412 29.5795 163.628 29.8409L168.366 30.7955C170.912 31.3182 172.81 32.1591 174.06 33.3182C175.31 34.4773 175.935 36 175.935 37.8864C175.935 39.6023 175.429 41.108 174.418 42.4034C173.418 43.6989 172.043 44.7102 170.293 45.4375C168.554 46.1534 166.548 46.5114 164.276 46.5114C160.81 46.5114 158.048 45.7898 155.991 44.3466C153.946 42.892 152.747 40.9148 152.395 38.4148L159.537 38.0398C159.753 39.0966 160.276 39.9034 161.105 40.4602C161.935 41.0057 162.997 41.2784 164.293 41.2784C165.565 41.2784 166.588 41.0341 167.361 40.5455C168.145 40.0455 168.543 39.4034 168.554 38.6193C168.543 37.9602 168.264 37.4205 167.719 37C167.173 36.5682 166.332 36.2386 165.196 36.0114L160.662 35.108C158.105 34.5966 156.202 33.7102 154.952 32.4489C153.713 31.1875 153.094 29.5795 153.094 27.625C153.094 25.9432 153.548 24.4943 154.457 23.2784C155.378 22.0625 156.668 21.125 158.327 20.4659C159.997 19.8068 161.952 19.4773 164.19 19.4773C167.497 19.4773 170.099 20.1761 171.997 21.5739C173.906 22.9716 175.02 24.875 175.338 27.2841ZM180.643 11.0909H189.746L199.359 34.5455H199.768L209.382 11.0909H218.484V46H211.325V23.2784H211.036L202.001 45.8295H197.126L188.092 23.1932H187.803V46H180.643V11.0909Z" fill="black"/>
<rect x="180" y="11" width="8" height="12" fill="black"/>
<rect x="180" y="23" width="8" height="11" fill="#FF0000"/>
<rect x="180" y="34" width="8" height="12" fill="#FFEA00"/>
<rect x="188" y="11" width="1" height="15" fill="white"/>
</svg>
